<svg width="80" height="80" viewBox="0 0 80 80" fill="none" xmlns="http://www.w3.org/2000/svg">
<path d="M66.6667 60H26.6667V6.66667H56.6667L66.6667 16.6667V60Z" fill="#00B3D7"/>
<path d="M53.3333 73.3333H13.3333V20H43.3333L53.3333 30V73.3333Z" fill="#3DD9EB"/>
<path d="M56.6667 16.6667H66.6667L56.6667 6.66667V16.6667Z" fill="#7DEBF5"/>
<path d="M53.3333 30L43.3333 20H26.6667V60H53.3333V30Z" fill="#3DD9EB"/>
<path d="M43.3333 30H53.3333L43.3333 20V30Z" fill="#7DEBF5"/>
<path d="M33.2479 31.6667C32.9804 31.6667 32.7052 31.8158 32.5252 32.1208C25.9915 42.8895 32.0605 51.6966 36.0555 59.9504C36.1943 60.2266 36.473 60.4167 36.7855 60.4167H46.2728C46.8765 60.4167 47.2718 59.7573 46.993 59.1935C46.993 59.1935 34.233 32.7673 33.9193 32.1086C33.7743 31.8161 33.5141 31.6667 33.2479 31.6667ZM33.1869 36.3468C35.8369 41.8393 41.2232 52.9967 43.5994 57.9167H37.8426C37.4801 57.1904 37.1068 56.4605 36.7293 55.7267C33.4818 49.4017 30.3931 43.3868 33.1869 36.3468ZM26.2288 44.1667C25.9451 44.1667 25.6759 44.3238 25.5184 44.6525L18.4212 59.1715C18.145 59.7515 18.5668 60.4167 19.1805 60.4167H29.0536H29.0828C29.3953 60.4167 29.6719 60.222 29.8006 59.9357C31.9419 55.4332 30.6549 48.5888 26.9149 44.4938C26.7161 44.2788 26.4676 44.1667 26.2288 44.1667ZM26.5462 48.2414C28.2187 51.2089 28.7936 55.0354 27.9036 57.9167H21.8172L26.5462 48.2414Z" fill="#1952BF"/>
</svg>
